HIERARCHY
ROOT HipCenter
{
    OFFSET 0.0 0.0 -0.0
    CHANNELS 6 Xposition Yposition Zposition Zrotation Xrotation Yrotation
    JOINT Spine
    {
        OFFSET 0.0 12.239690780639648 0.0
        CHANNELS 3 Zrotation Xrotation Yrotation
        JOINT ShoulderCenter
        {
            OFFSET 0.0 34.94607925415039 0.0
            CHANNELS 3 Zrotation Xrotation Yrotation
            JOINT LeftShoulder
            {
                OFFSET 18.58734893798828 0.0 0.0
                CHANNELS 3 Zrotation Xrotation Yrotation
                JOINT LeftElbow
                {
                    OFFSET 29.715782165527344 0.0 0.0
                    CHANNELS 3 Zrotation Xrotation Yrotation
                    JOINT LeftWrist
                    {
                        OFFSET 30.15786361694336 0.0 0.0
                        CHANNELS 3 Zrotation Xrotation Yrotation
                        JOINT LeftHand
                        {
                            OFFSET 4.084176063537598 0.0 0.0
                            CHANNELS 3 Zrotation Xrotation Yrotation
                            End Site
                            {
                                OFFSET 1.633670449256897 0.0 0.0
                            }
                        }
                    }
                }
            }
            JOINT RightShoulder
            {
                OFFSET -18.58734893798828 0.0 0.0
                CHANNELS 3 Zrotation Xrotation Yrotation
                JOINT RightElbow
                {
                    OFFSET -29.715782165527344 0.0 0.0
                    CHANNELS 3 Zrotation Xrotation Yrotation
                    JOINT RightWrist
                    {
                        OFFSET -30.15786361694336 0.0 0.0
                        CHANNELS 3 Zrotation Xrotation Yrotation
                        JOINT RightHand
                        {
                            OFFSET -4.084176063537598 0.0 0.0
                            CHANNELS 3 Zrotation Xrotation Yrotation
                            End Site
                            {
                                OFFSET -1.633670449256897 0.0 0.0
                            }
                        }
                    }
                }
            }
            End Site
            {
                OFFSET 0.0 13.978432655334473 0.0
            }
        }
    }
    JOINT LeftHip
    {
        OFFSET 15.67631721496582 0.0 0.0
        CHANNELS 3 Zrotation Xrotation Yrotation
        JOINT LeftKnee
        {
            OFFSET 0.0 -41.609214782714844 0.0
            CHANNELS 3 Zrotation Xrotation Yrotation
            JOINT LeftAnkle
            {
                OFFSET 0.0 -41.74919891357422 0.0
                CHANNELS 3 Zrotation Xrotation Yrotation
                JOINT LeftFoot
                {
                    OFFSET 0.0 -9.874725341796875 0.0
                    CHANNELS 3 Zrotation Xrotation Yrotation
                    End Site
                    {
                        OFFSET 0.0 0.0 3.949889659881592
                    }
                }
            }
        }
    }
    JOINT RightHip
    {
        OFFSET -15.67631721496582 0.0 0.0
        CHANNELS 3 Zrotation Xrotation Yrotation
        JOINT RightKnee
        {
            OFFSET 0.0 -41.609214782714844 0.0
            CHANNELS 3 Zrotation Xrotation Yrotation
            JOINT RightAnkle
            {
                OFFSET 0.0 -41.74919891357422 0.0
                CHANNELS 3 Zrotation Xrotation Yrotation
                JOINT RightFoot
                {
                    OFFSET 0.0 -9.874725341796875 0.0
                    CHANNELS 3 Zrotation Xrotation Yrotation
                    End Site
                    {
                        OFFSET 0.0 0.0 3.949889659881592
                    }
                }
            }
        }
    }
}
MOTION
Frames: 9
Frame Time: 0.03333333333333333
24.200000762939453 0.0 -44.400001525878906 5.102174841874127 23.97280156984215 -28.58715448715042 -9.432711846323807 6.981964834587856 1.1846262347608518 1.1150626636952623e-06 -3.030682710029613e-06 -8.884501037620572 125.86700056680917 -39.18489905444016 -137.88593859163035 -8.556884857055785e-07 -1.8737997221707625e-06 45.666232255625346 -179.99999736166268 -13.61720482624621 -123.67883958386878 1.7655625192200634e-31 6.361109362927035e-15 -3.1805546814635176e-15 -158.82607329884365 -26.469006364317522 169.795506987004 1.0784778920124253e-06 6.160848431368461e-06 -116.4044713415239 3.9173096905445256e-05 -84.57130353884067 -8.619526042517926 2.2069531490250793e-31 -3.1805546814635168e-15 7.951386703658792e-15 15.344418392312125 -33.748738841375 1.9197119934537896 2.260933820091286 26.42349145184812 -39.59988257412907 88.39418977250946 -46.13800807565435 149.23460522695498 1.7655625192200634e-31 6.3611093629270335e-15 -3.1805546814635168e-15 5.793528012145867 -26.860852812381026 14.009003156304146 -0.08667626692138053 0.03012371894322613 0.02513401643752801 -26.667467250690517 -69.38361602200645 -65.08944030288383 -3.975693351829396e-15 -8.276074308844047e-32 2.3854160110976376e-15
24.200000762939453 0.10000000149011612 -44.400001525878906 5.1478938667312155 24.58913234875639 -28.696699363590785 -9.113479917789538 6.2924501813365765 1.0709896494558346 9.357234234086156e-07 -1.8943519318918641e-06 -8.773611033533923 125.01516389806532 -39.01819761086698 -139.1109129341529 -1.4489910032848816e-06 -6.252166975934665e-07 46.21019471765988 -179.9999999133425 -17.886756138033903 -123.96891019976452 -6.3611093629270335e-15 6.3611093629270335e-15 3.531125038440127e-31 -158.90526125227075 -26.702231512121074 169.83428842318756 -1.1624965339934016e-06 3.7599539659470576e-06 -116.35903503634843 8.20253222481703e-06 -75.39138171311751 -8.96312283987998 0.0 0.0 0.0 15.763727428585971 -34.26475265186914 2.3369250707692437 2.325636094001953 26.41827788178277 -39.93447312856968 88.39967310959616 -45.948904331464234 149.4991720221253 6.361109362927032e-15 6.361109362927032e-15 -3.1805546814635164e-15 6.1284866091243355 -27.409279451171084 13.813682698509252 0.07942798910494017 -0.06746015625586527 -0.055965760598435575 -26.435182244339973 -69.97598596579127 -64.76423495942504 -4.770832022195275e-15 -3.975693351829397e-16 2.3854160110976376e-15
24.200000762939453 0.10000000149011612 -44.400001525878906 5.1478938667312155 24.58913234875639 -28.696699363590785 -9.0695137325641 6.570107241453882 1.1128621881192682 6.704192136553519e-08 -2.8090998372260067e-06 -8.905590884890342 125.48333937443701 -39.066696890457045 -138.819454938038 -4.28046327087188e-06 -4.932744141688848e-06 46.7369547253448 -179.99999686674445 -15.692425524574265 -123.46253195131672 -6.361109362927033e-15 -1.7655625192200634e-31 3.1805546814635164e-15 -159.16090201932857 -26.621494269473953 169.71620765451257 -1.9912866919010876e-06 -2.652101301165602e-06 -116.58367549822835 -1.0002902558102536e-05 -76.89324181324453 -8.428130943720916 -4.770832022195275e-15 1.3241718894150476e-31 -3.1805546814635168e-15 15.763727428585971 -34.26475265186914 2.3369250707692437 2.325636094001953 26.41827788178277 -39.93447312856968 87.59689197201504 -46.041871042155485 148.7403020924373 0.0 0.0 0.0 6.1284866091243355 -27.409279451171084 13.813682698509252 0.07942798910494017 -0.06746015625586527 -0.055965760598435575 -26.435182244339973 -69.97598596579127 -64.76423495942504 -4.770832022195275e-15 -3.975693351829397e-16 2.3854160110976376e-15
24.200000762939453 0.10000000149011612 -44.400001525878906 5.1478938667312155 24.58913234875639 -28.696699363590785 -8.982333811408322 6.764818563934506 1.1351221224456338 -1.3920021325168587e-06 1.1892105842576387e-06 -8.769037609613205 125.61563970876786 -39.02771944263939 -138.53047243416168 5.667437901459025e-07 -2.8671915897720516e-06 46.51699056501569 179.99999587742477 -17.724513045590452 -126.84743731912188 1.7655625192200634e-31 6.3611093629270335e-15 -3.1805546814635168e-15 -159.80450442300423 -27.032563154459993 169.95222940888868 2.671631893119162e-06 -3.2692365917214898e-06 -117.16920809654425 2.728810807668043e-06 -64.38509004980975 -7.58606175266546 -3.1805546814635164e-15 -8.827812596100317e-32 3.1805546814635164e-15 15.675982992250319 -34.15335335441908 2.09267993483247 2.3711235491351417 26.193880605765738 -39.68428090267571 88.22077834043225 -46.00883089858733 149.42842665316485 6.361109362927032e-15 6.361109362927032e-15 -3.1805546814635164e-15 6.1284866091243355 -27.409279451171084 13.813682698509252 0.07464224260227237 -0.07475443014298933 -0.06202774684057565 -25.630262675284197 -69.48761078590616 -63.8600586526448 3.1805546814635168e-15 3.975693351829397e-16 3.975693351829396e-15
24.100000381469727 0.10000000149011612 -44.400001525878906 4.63547097975457 24.605731885484104 -28.48622572852167 -8.629982116710602 7.09079202653454 1.197746638069131 -2.0641167971715319e-07 2.0369928214487443e-06 -8.794747466589936 124.69689771178837 -38.57903267714677 -139.1612956672302 2.93582243335071e-06 1.9375901780061317e-06 46.83274884711719 179.999998107282 -20.149413069888464 -126.71988502914165 3.531125038440127e-31 -1.2722218725854067e-14 3.1805546814635168e-15 -159.5791869545169 -26.774689886571526 170.08524905435982 -9.179381612237228e-07 -3.2870209141431624e-06 -117.1590036755118 -2.214176806304149e-07 -61.42702766081046 -8.505141825236608 -1.5902773407317584e-15 -4.4139062980501586e-32 3.1805546814635168e-15 15.918843052258184 -34.02653836868759 2.441181754642865 2.8633873957736102 26.30178625649474 -39.916837707064005 88.28399235366577 -46.38852392343206 149.32838535849672 -4.4139062980501586e-32 -1.5902773407317584e-15 -3.1805546814635168e-15 6.535116992779427 -27.201843525488293 13.67126461024174 0.07479842280683849 -0.07459796078560318 -0.062357291587249834 -25.34025921657368 -69.53926717456827 -63.784418905687666 3.1805546814635168e-15 -6.3611093629270335e-15 3.1805546814635168e-15
24.100000381469727 0.10000000149011612 -44.29999923706055 5.14788518266149 24.589120116538044 -28.80471320481041 -9.142392407970334 6.673958644998654 1.1102937416049805 7.598321384046605e-07 2.922177481059394e-07 -8.615168601276944 124.93472213403614 -38.7474175074875 -138.953240740629 3.5429131069696565e-06 -3.5077045547301815e-06 46.70498376493895 179.99999851287083 -19.90398360919044 -125.09643152809906 -3.531125038440127e-31 -6.3611093629270335e-15 -6.3611093629270335e-15 -159.79252638068058 -26.632783176427 170.0389107940086 -1.3166809673517505e-06 9.574790973089127e-06 -117.00465380449643 -3.990277679788731e-06 -61.85334978396984 -7.433159652396713 3.1805546814635164e-15 6.361109362927033e-15 -1.7655625192200634e-31 15.74648536169371 -34.12408972885421 2.834450403591252 2.8062272164273576 26.226390107254957 -40.379507476451195 88.29417666672046 -46.06170095914332 149.7922568261987 6.3611093629270335e-15 -1.7655625192200634e-31 -3.1805546814635168e-15 6.321482615294448 -27.331039673992375 13.600037324714 -0.05428969663500467 -0.10307822916297982 -0.08443362132659683 -24.62159577375259 -69.67266766321086 -62.461250836008325 -2.3854160110976384e-15 0.0 0.0
24.100000381469727 0.10000000149011612 -44.29999923706055 5.147884945546915 24.589120022510404 -28.700835689298806 -9.234161783196281 6.89433945076378 1.1148037797169676 -7.728175487770135e-07 7.474914733049624e-07 -8.98645751557966 125.20156795331255 -38.578826424066456 -138.83329031419538 -1.8846053556228872e-06 -2.911759868653639e-06 46.46725903631686 -179.99999965030784 -19.941883200758912 -125.22976000645603 0.0 -6.3611093629270335e-15 0.0 -160.38626224556012 -26.74910096837996 169.32587147185478 -5.468206224317133e-07 -3.728660833599612e-07 -116.64003631557287 3.5467215882880944e-06 -61.00874056752509 -7.20734475122386 -7.951386703658792e-15 2.2069531490250793e-31 -3.1805546814635168e-15 15.78795062392152 -34.28722028585022 3.7757523725026223 3.354339074735384 26.370585755610605 -41.707415540449205 88.60083829476231 -46.44225475879056 150.40213523138826 0.0 -6.3611093629270335e-15 0.0 6.268106031480775 -27.34242742186874 13.483804246927832 -0.05428969663500467 -0.10307822916297982 -0.08443362132659683 -25.377940553893524 -70.16224840971076 -63.31944279347534 3.1805546814635168e-15 4.4139062980501586e-32 1.5902773407317584e-15
24.100000381469727 0.10000000149011612 -44.29999923706055 5.147884945546915 24.589120022510404 -28.700835689298806 -9.086454254025218 6.968166715845022 1.1083028223708333 6.164636428618375e-07 -9.203677502387631e-08 -9.07518693247304 123.96777555031039 -38.01302164011752 -139.56827000093628 -2.8425479106457197e-06 6.155470964625806e-07 46.53288013175905 179.9999985949899 -18.722238822144295 -125.38062904369075 6.361109362927035e-15 6.361109362927035e-15 3.1805546814635168e-15 -160.77089661853987 -27.016804644069804 169.2767256148936 2.06025862554481e-06 2.7734195615031652e-06 -116.37089378602265 -5.74215258280667e-06 -59.52644968703825 -7.738934449138327 8.827812596100317e-32 3.1805546814635168e-15 -3.1805546814635168e-15 15.64984270972537 -34.362036790645725 3.814546660022154 3.532917594059178 26.430561457855436 -41.84194366932914 88.37337554974712 -45.919365010941846 150.41662983274531 0.0 0.0 0.0 6.268106031480775 -27.34242742186874 13.483804246927832 -0.05428969663500467 -0.10307822916297982 -0.08443362132659683 -25.377940553893524 -70.16224840971076 -63.31944279347534 3.1805546814635168e-15 4.4139062980501586e-32 1.5902773407317584e-15
24.100000381469727 0.10000000149011612 -44.29999923706055 5.14788507818922 24.589119613322413 -28.81987596865337 -9.161415921711617 7.06944823462024 1.1365290060363868 -8.348180516089145e-07 1.6902092777990377e-06 -8.715715511852526 124.81336898119001 -38.40941240527783 -138.86327692768566 3.737205796113383e-06 -1.9322706857183826e-06 46.54640206036211 179.9999951057267 -20.243837206040332 -125.2561161058093 0.0 0.0 -9.541664044390549e-15 -160.48311702123692 -26.932458728062716 169.86625637263896 -1.430566039102742e-06 -5.827351445398314e-06 -116.46944115254162 2.7192691899997563e-06 -69.86670797877875 -6.946379998873576 4.770832022195275e-15 6.3611093629270335e-15 -2.648343778830095e-31 15.865992795298917 -34.254755864977895 3.5439638302770717 3.1709352146051186 26.391667643810116 -41.844845331232634 88.38926737695627 -45.369397137712554 150.70331580669043 0.0 0.0 0.0 6.32927115191089 -27.32936895975691 13.617001689504802 -0.05428969663500467 -0.10307822916297982 -0.08443362132659683 -25.377940553893524 -70.16224840971076 -63.31944279347534 3.1805546814635168e-15 4.4139062980501586e-32 1.5902773407317584e-15
